<?xml version="1.0" encoding="UTF-8" standalone="no"?>
<!DOCTYPE svg PUBLIC "-//W3C//DTD SVG 20010904//EN"
              "http://www.w3.org/TR/2001/REC-SVG-20010904/DTD/svg10.dtd">

<svg xmlns="http://www.w3.org/2000/svg"
     width="6.94444in" height="1.45833in"
     viewBox="0 0 500 105">
  <path id="Selection"
        fill="none" stroke="black" stroke-width="1"
        d="M 0.00,105.00
           C 0.00,102.15 -0.28,95.38 0.60,93.00
             2.69,87.32 13.89,78.86 20.00,78.20
             25.29,77.63 30.93,80.50 36.00,80.41
             42.05,80.31 48.46,75.26 54.00,75.39
             60.58,75.55 67.28,82.66 73.00,84.35
             79.54,86.29 86.32,81.98 92.00,82.27
             98.23,82.59 104.40,88.09 110.00,88.77
             116.10,89.52 121.36,84.99 127.00,83.10
             133.74,80.85 139.45,83.23 148.00,80.40
             153.74,78.50 159.18,73.54 164.00,73.32
             172.44,72.93 177.56,84.83 185.00,85.73
             193.92,86.81 198.85,74.22 210.00,74.08
             213.57,74.04 235.93,79.27 240.00,80.69
             244.51,82.27 251.42,85.63 256.00,85.74
             263.47,85.91 269.47,78.26 277.00,77.21
             285.11,76.09 290.03,82.56 297.00,81.12
             302.81,79.92 307.82,73.95 314.00,74.97
             322.44,76.36 326.87,87.05 334.00,86.91
             341.91,86.76 347.37,73.16 359.00,76.65
             369.01,79.64 378.69,95.06 390.00,93.63
             395.77,92.90 401.05,88.03 407.00,87.76
             412.81,87.51 419.52,92.22 425.00,90.13
             431.95,87.49 436.59,76.29 444.00,74.76
             450.74,73.36 456.35,83.53 463.00,82.58
             469.08,81.71 475.17,70.15 482.00,67.72
             488.26,65.50 496.82,71.55 499.15,77.04
             500.62,80.53 500.00,99.89 500.00,105.00
             500.00,105.00 0.00,105.00 0.00,105.00 Z" />
</svg>
