<?xml version="1.0" encoding="UTF-8" standalone="no"?>
<!DOCTYPE svg PUBLIC "-//W3C//DTD SVG 20010904//EN"
              "http://www.w3.org/TR/2001/REC-SVG-20010904/DTD/svg10.dtd">

<svg xmlns="http://www.w3.org/2000/svg"
     width="26.6667in" height="4.66667in"
     viewBox="0 0 2400 420">
  <path id="Selection"
        fill="none" stroke="black" stroke-width="1"
        d="M 145.00,419.00
           C 165.16,412.27 174.50,400.82 186.57,384.00
             186.57,384.00 193.52,374.02 193.52,374.02
             197.64,368.97 199.78,369.38 204.72,363.98
             217.35,350.17 234.36,332.17 250.00,322.09
             261.91,314.42 271.81,310.84 286.00,311.00
             304.26,311.22 321.74,320.78 340.00,321.00
             369.82,321.34 388.78,299.68 417.00,300.00
             447.43,300.35 473.28,339.65 503.00,340.00
             503.00,340.00 507.00,340.00 507.00,340.00
             530.58,339.72 547.53,323.66 575.00,328.28
             596.47,331.90 620.29,354.35 645.00,355.63
             664.28,356.62 690.04,337.94 708.00,331.06
             723.78,325.03 731.55,324.97 748.00,325.00
             748.00,325.00 766.00,326.00 766.00,326.00
             785.57,325.77 798.59,319.76 815.00,309.80
             827.45,302.24 841.97,291.63 857.00,291.04
             874.16,290.37 886.52,302.99 898.00,313.96
             898.00,313.96 918.00,332.00 918.00,332.00
             925.36,337.86 936.03,345.66 946.00,344.52
             956.13,343.37 967.12,336.15 975.00,329.99
             993.94,315.15 1007.63,297.85 1033.00,294.85
             1035.75,294.52 1037.13,294.11 1040.00,294.32
             1062.16,295.98 1077.87,302.92 1099.00,307.58
             1119.72,312.15 1140.76,314.18 1161.00,321.00
             1178.93,327.05 1204.99,341.79 1223.00,342.00
             1223.00,342.00 1227.00,342.00 1227.00,342.00
             1255.78,341.96 1276.40,314.31 1303.00,307.48
             1333.07,299.75 1355.28,327.22 1384.00,324.91
             1404.80,323.24 1428.75,296.57 1452.00,296.57
             1462.80,296.57 1469.88,301.53 1478.00,308.00
             1478.00,308.00 1510.00,337.08 1510.00,337.08
             1517.17,342.99 1526.31,349.31 1536.00,348.96
             1545.07,348.63 1554.01,342.68 1561.00,337.35
             1577.04,325.10 1596.99,301.50 1618.00,301.01
             1633.16,300.66 1644.95,307.71 1657.00,316.02
             1657.00,316.02 1714.00,360.33 1714.00,360.33
             1724.44,367.33 1741.13,375.64 1754.00,374.91
             1780.18,373.42 1802.90,349.12 1828.00,349.00
             1828.00,349.00 1833.00,349.00 1833.00,349.00
             1852.74,349.23 1868.06,363.25 1890.00,363.00
             1901.85,362.86 1910.82,355.97 1919.00,347.99
             1919.00,347.99 1953.00,311.00 1953.00,311.00
             1960.46,303.55 1970.53,294.24 1982.00,295.19
             2004.79,297.07 2026.82,331.03 2048.00,331.96
             2060.32,332.50 2068.84,324.15 2077.00,316.00
             2077.00,316.00 2115.00,275.62 2115.00,275.62
             2122.38,269.57 2131.10,264.52 2141.00,265.09
             2156.93,266.02 2171.16,277.21 2182.00,288.00
             2184.79,290.78 2195.17,301.74 2197.82,302.96
             2199.34,303.60 2199.63,303.23 2201.00,302.96
             2209.18,319.17 2219.57,336.34 2235.00,346.46
             2245.42,353.29 2268.47,360.15 2281.00,363.71
             2297.51,368.40 2332.75,377.71 2347.00,384.31
             2361.74,391.13 2382.63,406.92 2392.00,420.00
             2392.00,420.00 801.00,420.00 801.00,420.00
             801.00,420.00 338.00,420.00 338.00,420.00
             338.00,420.00 203.00,420.00 203.00,420.00
             203.00,420.00 164.00,420.00 164.00,420.00
             164.00,420.00 145.00,419.00 145.00,419.00 Z" />
</svg>
