
<?xml version="1.0" standalone="no"?>
<svg xmlns:xlink="http://www.w3.org/1999/xlink" id="wave" style="transform:rotate(0deg); transition: 0.3s" viewBox="0 0 1440 420" version="1.1" xmlns="http://www.w3.org/2000/svg"><defs><linearGradient id="sw-gradient-0" x1="0" x2="0" y1="1" y2="0"><stop stop-color="rgba(243, 106, 62, 1)" offset="0%"/><stop stop-color="rgba(255, 179, 11, 1)" offset="100%"/></linearGradient></defs><path style="transform:translate(0, 0px); opacity:1" fill="url(#sw-gradient-0)" d="M0,168L20,175C40,182,80,196,120,196C160,196,200,182,240,154C280,126,320,84,360,84C400,84,440,126,480,182C520,238,560,308,600,336C640,364,680,350,720,336C760,322,800,308,840,287C880,266,920,238,960,224C1000,210,1040,210,1080,224C1120,238,1160,266,1200,266C1240,266,1280,238,1320,210C1360,182,1400,154,1440,168C1480,182,1520,238,1560,280C1600,322,1640,350,1680,315C1720,280,1760,182,1800,175C1840,168,1880,252,1920,301C1960,350,2000,364,2040,364C2080,364,2120,350,2160,308C2200,266,2240,196,2280,203C2320,210,2360,294,2400,273C2440,252,2480,126,2520,84C2560,42,2600,84,2640,112C2680,140,2720,154,2760,161C2800,168,2840,168,2860,168L2880,168L2880,420L2860,420C2840,420,2800,420,2760,420C2720,420,2680,420,2640,420C2600,420,2560,420,2520,420C2480,420,2440,420,2400,420C2360,420,2320,420,2280,420C2240,420,2200,420,2160,420C2120,420,2080,420,2040,420C2000,420,1960,420,1920,420C1880,420,1840,420,1800,420C1760,420,1720,420,1680,420C1640,420,1600,420,1560,420C1520,420,1480,420,1440,420C1400,420,1360,420,1320,420C1280,420,1240,420,1200,420C1160,420,1120,420,1080,420C1040,420,1000,420,960,420C920,420,880,420,840,420C800,420,760,420,720,420C680,420,640,420,600,420C560,420,520,420,480,420C440,420,400,420,360,420C320,420,280,420,240,420C200,420,160,420,120,420C80,420,40,420,20,420L0,420Z"/></svg>