
<svg xmlns="http://www.w3.org/2000/svg" version="1.1" class="drawSvg" width="720" height="480"><rect id="bg" width="100%" height="100%" fill="#EAEAEA"/><path d="M2,367L108,285L124,274L139,264L154,256L168,249L180,244L190,240L198,238L207,236L216,234L224,234L231,234L238,234L247,234L256,235L267,236L277,238L289,240L302,242L315,244L325,245L335,247L345,249L354,252L361,254L368,256L374,259L379,261L385,264L391,266L395,267L400,269L404,270L408,271L412,271L415,272L419,272L422,271L426,270L430,269L434,266L439,263L443,259L447,254L457,241L461,234L466,227L470,221L475,215L480,211L485,207L490,204L496,201L502,198L509,195L517,192L525,188L533,183L544,177L556,169L569,160L582,152L593,145L602,139L609,135L616,131L622,128L628,125L633,121L638,118L643,114L647,111L651,108L655,105L660,102L665,100L670,97L673,96L676,94L678,93L679,93L679,93, L 720 0, L 720 480, L 0 480 Z" fill="000" stroke-linecap="round" stroke-linejoin="round" stroke="#292929" stroke-width="8"/></svg>